<svg xmlns="http://www.w3.org/2000/svg" viewBox="0 0 700 700">
    <rect width="700" height="700" fill="#282922" />
    <rect x="7" y="7" width="145" height="14" rx="6" fill="#595545" />
    <rect x="164" y="7" width="95" height="14" rx="6" fill="#595545" />
    <rect x="7" y="38" width="63" height="14" rx="6" fill="#595545" />
    <rect x="82" y="38" width="120" height="14" rx="6" fill="#595545" />
    <rect x="214" y="38" width="78" height="14" rx="6" fill="#595545" />
    <rect x="7" y="100" width="106" height="14" rx="6" fill="#be1254" />
    <rect x="125" y="100" width="77" height="14" rx="6" fill="#595545" />
    <rect x="214" y="100" width="118" height="14" rx="6" fill="#595545" />
    <rect x="7" y="131" width="65" height="14" rx="6" fill="#be1254" />
    <rect x="84" y="131" width="65" height="14" rx="6" fill="#595545" />
    <rect x="161" y="131" width="90" height="14" rx="6" fill="#595545" />
    <rect x="7" y="162" width="135" height="14" rx="6" fill="#be1254" />
    <rect x="154" y="162" width="260" height="14" rx="6" fill="#4ba2b8" />
    <rect x="7" y="193" width="145" height="14" rx="6" fill="#595545" />
    <rect x="164" y="193" width="440" height="14" rx="6" fill="#595545" />
    <rect x="7" y="255" width="145" height="14" rx="6" fill="#be1254" />
    <rect x="164" y="255" width="95" height="14" rx="6" fill="#8860c7" />
    <rect x="271" y="255" width="142" height="14" rx="6" fill="#4ba2b8" />
    <rect x="425" y="255" width="240" height="14" rx="6" fill="#c2bb5e" />
    <rect x="7" y="286" width="63" height="14" rx="6" fill="#be1254" />
    <rect x="82" y="286" width="120" height="14" rx="6" fill="#669919" />
    <rect x="214" y="286" width="78" height="14" rx="6" fill="#c2bb5e" />
    <rect x="7" y="348" width="108" height="14" rx="6" fill="#be1254" />
    <rect x="127" y="348" width="74" height="14" rx="6" fill="#c2bb5e" />
    <rect x="213" y="348" width="120" height="14" rx="6" fill="#595545" />
    <rect x="7" y="379" width="65" height="14" rx="6" fill="#be1254" />
    <rect x="84" y="379" width="65" height="14" rx="6" fill="#4ba2b8" />
    <rect x="161" y="379" width="90" height="14" rx="6" fill="#595545" />
    <rect x="7" y="410" width="135" height="14" rx="6" fill="#be1254" />
    <rect x="154" y="410" width="390" height="14" rx="6" fill="#4ba2b8" />
    <rect x="556" y="410" width="600" height="14" rx="6" fill="#c2bb5e" />
    <rect x="7" y="441" width="145" height="14" rx="6" fill="#595545" />
    <rect x="164" y="441" width="260" height="14" rx="6" fill="#595545" />
    <rect x="7" y="472" width="145" height="14" rx="6" fill="#be1254" />
    <rect x="164" y="472" width="450" height="14" rx="6" fill="#c2bb5e" />
    <rect x="7" y="503" width="64" height="14" rx="6" fill="#595545" />
    <rect x="83" y="503" width="120" height="14" rx="6" fill="#595545" />
    <rect x="215" y="503" width="75" height="14" rx="6" fill="#595545" />
    <rect x="7" y="565" width="110" height="14" rx="6" fill="#be1254" />
    <rect x="129" y="565" width="80" height="14" rx="6" fill="#595545" />
    <rect x="221" y="565" width="120" height="14" rx="6" fill="#595545" />
    <rect x="7" y="596" width="70" height="14" rx="6" fill="#be1254" />
    <rect x="89" y="596" width="60" height="14" rx="6" fill="#669919" />
    <rect x="161" y="596" width="90" height="14" rx="6" fill="#595545" />
    <rect x="7" y="627" width="134" height="14" rx="6" fill="#be1254" />
    <rect x="153" y="627" width="260" height="14" rx="6" fill="#4ba2b8" />
    <rect x="7" y="658" width="305" height="14" rx="6" fill="#595545" />
    <rect x="324" y="658" width="140" height="14" rx="6" fill="#595545" />
</svg>